# xmcd CD database file
#
# Track frame offsets:
#	150
#	13901
#	24740
#	39073
#	57035
#	77225
#	92304
#	105806
#	127427
#	146059
#	164321
#	178831
#	194662
#
# Disc length: 3272 seconds
#
# Revision: 0
# Processed by: cddbd v1.5.2PL0 Copyright (c) Steve Scherf et al.
# Submitted via: jetAudio 7
#
DISCID=aa0cc60d
DTITLE=The Whybirds - Cold Blue Sky
DYEAR=1900
DGENRE=Unknown Genre
TTITLE0=Glow
TTITLE1=I Feel Loved
TTITLE2=Morning Light
TTITLE3=Isabel
TTITLE4=Morva
TTITLE5=Something Beautiful (This Way Comes)
TTITLE6=Try a Little Harder
TTITLE7=The Losing End
TTITLE8=If You Stay With Me
TTITLE9=Jenny, Can We Take a Rider?
TTITLE10=Mona Lisa
TTITLE11=Wild, Wild Wind
TTITLE12=Cold Blue Sky
EXTD=
EXTT0=
EXTT1=
EXTT2=
EXTT3=
EXTT4=
EXTT5=
EXTT6=
EXTT7=
EXTT8=
EXTT9=
EXTT10=
EXTT11=
EXTT12=
PLAYORDER=
